<?xml version="1.0" encoding="UTF-8" standalone="no"?>
<!DOCTYPE svg PUBLIC "-//W3C//DTD SVG 1.1//EN"
 "http://www.w3.org/Graphics/SVG/1.1/DTD/svg11.dtd">
<!-- Generated by graphviz version 2.43.0 (0)
 -->
<!-- Title: image_layer_chain Pages: 1 -->
<svg width="652pt" height="708pt"
 viewBox="0.00 0.00 652.20 708.20" xmlns="http://www.w3.org/2000/svg" xmlns:xlink="http://www.w3.org/1999/xlink">
<g id="graph0" class="graph" transform="scale(1 1) rotate(0) translate(21.6 686.6)">
<title>image_layer_chain</title>
<polygon fill="#0d1117" stroke="transparent" points="-21.6,21.6 -21.6,-686.6 630.6,-686.6 630.6,21.6 -21.6,21.6"/>
<text text-anchor="middle" x="304.5" y="-645" font-family="Helvetica,sans-Serif" font-size="20.00" fill="#e6edf3">Hermes sandbox image chain: Nim is the newest layer (top)</text>
<!-- a -->
<g id="node1" class="node">
<title>a</title>
<path fill="#161b22" stroke="#8b949e" stroke-width="2" d="M425.5,-635C425.5,-635 183.5,-635 183.5,-635 177.5,-635 171.5,-629 171.5,-623 171.5,-623 171.5,-591 171.5,-591 171.5,-585 177.5,-579 183.5,-579 183.5,-579 425.5,-579 425.5,-579 431.5,-579 437.5,-585 437.5,-591 437.5,-591 437.5,-623 437.5,-623 437.5,-629 431.5,-635 425.5,-635"/>
<text text-anchor="middle" x="304.5" y="-610.8" font-family="Helvetica,sans-Serif" font-size="14.00" fill="#e6edf3">Debian 13 (trixie) base</text>
<text text-anchor="middle" x="304.5" y="-595.8" font-family="Helvetica,sans-Serif" font-size="14.00" fill="#e6edf3">(exact upstream tag not verified)</text>
</g>
<!-- b -->
<g id="node2" class="node">
<title>b</title>
<path fill="#161b22" stroke="#58a6ff" stroke-width="2" d="M401.5,-543C401.5,-543 207.5,-543 207.5,-543 201.5,-543 195.5,-537 195.5,-531 195.5,-531 195.5,-499 195.5,-499 195.5,-493 201.5,-487 207.5,-487 207.5,-487 401.5,-487 401.5,-487 407.5,-487 413.5,-493 413.5,-499 413.5,-499 413.5,-531 413.5,-531 413.5,-537 407.5,-543 401.5,-543"/>
<text text-anchor="middle" x="304.5" y="-518.8" font-family="Helvetica,sans-Serif" font-size="14.00" fill="#e6edf3">hermes&#45;sandbox:graphviz</text>
<text text-anchor="middle" x="304.5" y="-503.8" font-family="Helvetica,sans-Serif" font-size="14.00" fill="#e6edf3">1.56 GB</text>
</g>
<!-- a&#45;&gt;b -->
<g id="edge1" class="edge">
<title>a&#45;&gt;b</title>
<path fill="none" stroke="#8b949e" stroke-width="1.6" d="M304.5,-579C304.5,-570.62 304.5,-561.25 304.5,-552.34"/>
<polygon fill="#8b949e" stroke="#8b949e" stroke-width="1.6" points="307.65,-552.29 304.5,-543.29 301.35,-552.3 307.65,-552.29"/>
</g>
<!-- c -->
<g id="node3" class="node">
<title>c</title>
<path fill="#161b22" stroke="#58a6ff" stroke-width="2" d="M447.5,-451C447.5,-451 161.5,-451 161.5,-451 155.5,-451 149.5,-445 149.5,-439 149.5,-439 149.5,-392 149.5,-392 149.5,-386 155.5,-380 161.5,-380 161.5,-380 447.5,-380 447.5,-380 453.5,-380 459.5,-386 459.5,-392 459.5,-392 459.5,-439 459.5,-439 459.5,-445 453.5,-451 447.5,-451"/>
<text text-anchor="middle" x="304.5" y="-426.8" font-family="Helvetica,sans-Serif" font-size="14.00" fill="#e6edf3">hermes&#45;sandbox:pdf</text>
<text text-anchor="middle" x="304.5" y="-411.8" font-family="Helvetica,sans-Serif" font-size="14.00" fill="#e6edf3">poppler / ocrmypdf / tesseract / docling</text>
<text text-anchor="middle" x="304.5" y="-396.8" font-family="Helvetica,sans-Serif" font-size="14.00" fill="#e6edf3">8.43 GB</text>
</g>
<!-- b&#45;&gt;c -->
<g id="edge2" class="edge">
<title>b&#45;&gt;c</title>
<path fill="none" stroke="#8b949e" stroke-width="1.6" d="M304.5,-486.84C304.5,-478.64 304.5,-469.43 304.5,-460.43"/>
<polygon fill="#8b949e" stroke="#8b949e" stroke-width="1.6" points="307.65,-460.19 304.5,-451.19 301.35,-460.19 307.65,-460.19"/>
</g>
<!-- d -->
<g id="node4" class="node">
<title>d</title>
<path fill="#161b22" stroke="#58a6ff" stroke-width="2" d="M435.5,-344C435.5,-344 173.5,-344 173.5,-344 167.5,-344 161.5,-338 161.5,-332 161.5,-332 161.5,-285 161.5,-285 161.5,-279 167.5,-273 173.5,-273 173.5,-273 435.5,-273 435.5,-273 441.5,-273 447.5,-279 447.5,-285 447.5,-285 447.5,-332 447.5,-332 447.5,-338 441.5,-344 435.5,-344"/>
<text text-anchor="middle" x="304.5" y="-319.8" font-family="Helvetica,sans-Serif" font-size="14.00" fill="#e6edf3">hermes&#45;sandbox:tools</text>
<text text-anchor="middle" x="304.5" y="-304.8" font-family="Helvetica,sans-Serif" font-size="14.00" fill="#e6edf3">jq / rg / tmux / ffmpeg / pandoc / gh</text>
<text text-anchor="middle" x="304.5" y="-289.8" font-family="Helvetica,sans-Serif" font-size="14.00" fill="#e6edf3">9.07 GB</text>
</g>
<!-- c&#45;&gt;d -->
<g id="edge3" class="edge">
<title>c&#45;&gt;d</title>
<path fill="none" stroke="#8b949e" stroke-width="1.6" d="M304.5,-379.83C304.5,-371.32 304.5,-362.09 304.5,-353.22"/>
<polygon fill="#8b949e" stroke="#8b949e" stroke-width="1.6" points="307.65,-353.14 304.5,-344.14 301.35,-353.14 307.65,-353.14"/>
</g>
<!-- e -->
<g id="node5" class="node">
<title>e</title>
<path fill="#0d2e2e" stroke="#39c5cf" stroke-width="2" d="M458,-237C458,-237 151,-237 151,-237 145,-237 139,-231 139,-225 139,-225 139,-178 139,-178 139,-172 145,-166 151,-166 151,-166 458,-166 458,-166 464,-166 470,-172 470,-178 470,-178 470,-225 470,-225 470,-231 464,-237 458,-237"/>
<text text-anchor="middle" x="304.5" y="-212.8" font-family="Helvetica,sans-Serif" font-size="14.00" fill="#e6edf3">hermes&#45;sandbox:desktop&#45;tools</text>
<text text-anchor="middle" x="304.5" y="-197.8" font-family="Helvetica,sans-Serif" font-size="14.00" fill="#e6edf3">VNC + xfce + agent&#45;browser + Chromium</text>
<text text-anchor="middle" x="304.5" y="-182.8" font-family="Helvetica,sans-Serif" font-size="14.00" fill="#e6edf3">9.98 GB</text>
</g>
<!-- d&#45;&gt;e -->
<g id="edge4" class="edge">
<title>d&#45;&gt;e</title>
<path fill="none" stroke="#8b949e" stroke-width="1.6" d="M304.5,-272.83C304.5,-264.32 304.5,-255.09 304.5,-246.22"/>
<polygon fill="#8b949e" stroke="#8b949e" stroke-width="1.6" points="307.65,-246.14 304.5,-237.14 301.35,-246.14 307.65,-246.14"/>
</g>
<!-- f -->
<g id="node6" class="node">
<title>f</title>
<path fill="#1f2937" stroke="#3fb950" stroke-width="3" d="M413,-130C413,-130 196,-130 196,-130 190,-130 184,-124 184,-118 184,-118 184,-86 184,-86 184,-80 190,-74 196,-74 196,-74 413,-74 413,-74 419,-74 425,-80 425,-86 425,-86 425,-118 425,-118 425,-124 419,-130 413,-130"/>
<text text-anchor="middle" x="304.5" y="-105.8" font-family="Helvetica,sans-Serif" font-size="14.00" fill="#e6edf3">hermes&#45;sandbox:nim &#160;&#160;(NEW)</text>
<text text-anchor="middle" x="304.5" y="-90.8" font-family="Helvetica,sans-Serif" font-size="14.00" fill="#e6edf3">+ Nim 2.2.12 in /opt/nim</text>
</g>
<!-- e&#45;&gt;f -->
<g id="edge5" class="edge">
<title>e&#45;&gt;f</title>
<path fill="none" stroke="#8b949e" stroke-width="1.6" d="M304.5,-165.85C304.5,-157.25 304.5,-148.01 304.5,-139.33"/>
<polygon fill="#8b949e" stroke="#8b949e" stroke-width="1.6" points="307.65,-139.19 304.5,-130.19 301.35,-139.19 307.65,-139.19"/>
</g>
<!-- n -->
<g id="node7" class="node">
<title>n</title>
<polygon fill="#161b22" stroke="#d29922" stroke-width="2" points="539,-38 64,-38 64,0 545,0 545,-32 539,-38"/>
<polyline fill="none" stroke="#d29922" stroke-width="2" points="539,-38 539,-32 "/>
<polyline fill="none" stroke="#d29922" stroke-width="2" points="545,-32 539,-32 "/>
<text text-anchor="middle" x="304.5" y="-16.2" font-family="Helvetica,sans-Serif" font-size="11.00" fill="#e6edf3">Intermediate base&#45;OS hops simplified; layer sizes are totals from docker images</text>
</g>
<!-- f&#45;&gt;n -->
<g id="edge6" class="edge">
<title>f&#45;&gt;n</title>
<path fill="none" stroke="#d29922" stroke-width="1.6" stroke-dasharray="5,2" d="M304.5,-73.58C304.5,-62.01 304.5,-48.85 304.5,-38.47"/>
</g>
</g>
</svg>
