<?xml version="1.0" encoding="UTF-8" standalone="no"?>
<!DOCTYPE svg PUBLIC "-//W3C//DTD SVG 1.1//EN"
 "http://www.w3.org/Graphics/SVG/1.1/DTD/svg11.dtd">
<!-- Generated by graphviz version 2.43.0 (0)
 -->
<!-- Title: verification Pages: 1 -->
<svg width="907pt" height="203pt"
 viewBox="0.00 0.00 907.20 203.20" xmlns="http://www.w3.org/2000/svg" xmlns:xlink="http://www.w3.org/1999/xlink">
<g id="graph0" class="graph" transform="scale(1 1) rotate(0) translate(21.6 181.6)">
<title>verification</title>
<polygon fill="#0d1117" stroke="transparent" points="-21.6,21.6 -21.6,-181.6 885.6,-181.6 885.6,21.6 -21.6,21.6"/>
<text text-anchor="middle" x="432" y="-140" font-family="Helvetica,sans-Serif" font-size="20.00" fill="#e6edf3">Verification results (observed 2026&#45;10&#45;07)</text>
<!-- t1 -->
<g id="node1" class="node">
<title>t1</title>
<path fill="#161b22" stroke="#3fb950" stroke-width="2" d="M239,-56C239,-56 54,-56 54,-56 48,-56 42,-50 42,-44 42,-44 42,-12 42,-12 42,-6 48,0 54,0 54,0 239,0 239,0 245,0 251,-6 251,-12 251,-12 251,-44 251,-44 251,-50 245,-56 239,-56"/>
<text text-anchor="middle" x="146.5" y="-31.8" font-family="Helvetica,sans-Serif" font-size="14.00" fill="#e6edf3">fresh :nim container</text>
<text text-anchor="middle" x="146.5" y="-16.8" font-family="Helvetica,sans-Serif" font-size="14.00" fill="#e6edf3">hello&#45;world &#45;&gt; &quot;hello 42&quot;</text>
</g>
<!-- t2 -->
<g id="node2" class="node">
<title>t2</title>
<path fill="#161b22" stroke="#3fb950" stroke-width="2" d="M516,-56C516,-56 391,-56 391,-56 385,-56 379,-50 379,-44 379,-44 379,-12 379,-12 379,-6 385,0 391,0 391,0 516,0 516,0 522,0 528,-6 528,-12 528,-12 528,-44 528,-44 528,-50 522,-56 516,-56"/>
<text text-anchor="middle" x="453.5" y="-31.8" font-family="Helvetica,sans-Serif" font-size="14.00" fill="#e6edf3">nimble &#45;&#45;version</text>
<text text-anchor="middle" x="453.5" y="-16.8" font-family="Helvetica,sans-Serif" font-size="14.00" fill="#e6edf3">v0.24.1</text>
</g>
<!-- t1&#45;&gt;t2 -->
<g id="edge1" class="edge">
<title>t1&#45;&gt;t2</title>
<path fill="none" stroke="#8b949e" stroke-width="1.6" d="M251.18,-28C289.87,-28 333.24,-28 369.79,-28"/>
<polygon fill="#8b949e" stroke="#8b949e" stroke-width="1.6" points="369.93,-31.15 378.93,-28 369.93,-24.85 369.93,-31.15"/>
</g>
<!-- t3 -->
<g id="node3" class="node">
<title>t3</title>
<path fill="#161b22" stroke="#3fb950" stroke-width="2" d="M281,-130C281,-130 12,-130 12,-130 6,-130 0,-124 0,-118 0,-118 0,-86 0,-86 0,-80 6,-74 12,-74 12,-74 281,-74 281,-74 287,-74 293,-80 293,-86 293,-86 293,-118 293,-118 293,-124 287,-130 281,-130"/>
<text text-anchor="middle" x="146.5" y="-105.8" font-family="Helvetica,sans-Serif" font-size="14.00" fill="#e6edf3">running container hermes&#45;d1c35658</text>
<text text-anchor="middle" x="146.5" y="-90.8" font-family="Helvetica,sans-Serif" font-size="14.00" fill="#e6edf3">nim &#45;&#45;version &#45;&gt; 2.2.12 amd64</text>
</g>
<!-- t4 -->
<g id="node4" class="node">
<title>t4</title>
<path fill="#161b22" stroke="#3fb950" stroke-width="2" d="M566,-130C566,-130 341,-130 341,-130 335,-130 329,-124 329,-118 329,-118 329,-86 329,-86 329,-80 335,-74 341,-74 341,-74 566,-74 566,-74 572,-74 578,-80 578,-86 578,-86 578,-118 578,-118 578,-124 572,-130 566,-130"/>
<text text-anchor="middle" x="453.5" y="-105.8" font-family="Helvetica,sans-Serif" font-size="14.00" fill="#e6edf3">running container, /workspace</text>
<text text-anchor="middle" x="453.5" y="-90.8" font-family="Helvetica,sans-Serif" font-size="14.00" fill="#e6edf3">nim c &#45;r &#45;&gt; 2</text>
</g>
<!-- t3&#45;&gt;t4 -->
<g id="edge2" class="edge">
<title>t3&#45;&gt;t4</title>
<path fill="none" stroke="#8b949e" stroke-width="1.6" d="M293.3,-102C302.05,-102 310.84,-102 319.53,-102"/>
<polygon fill="#8b949e" stroke="#8b949e" stroke-width="1.6" points="319.56,-105.15 328.56,-102 319.56,-98.85 319.56,-105.15"/>
</g>
<!-- t5 -->
<g id="node5" class="node">
<title>t5</title>
<path fill="#161b22" stroke="#d29922" stroke-width="2" d="M852,-130C852,-130 626,-130 626,-130 620,-130 614,-124 614,-118 614,-118 614,-86 614,-86 614,-80 620,-74 626,-74 626,-74 852,-74 852,-74 858,-74 864,-80 864,-86 864,-86 864,-118 864,-118 864,-124 858,-130 852,-130"/>
<text text-anchor="middle" x="739" y="-105.8" font-family="Helvetica,sans-Serif" font-size="14.00" fill="#e6edf3">not tested: Hermes itself</text>
<text text-anchor="middle" x="739" y="-90.8" font-family="Helvetica,sans-Serif" font-size="14.00" fill="#e6edf3">calling nim via its terminal tool</text>
</g>
<!-- t4&#45;&gt;t5 -->
<g id="edge3" class="edge">
<title>t4&#45;&gt;t5</title>
<path fill="none" stroke="#d29922" stroke-width="1.6" stroke-dasharray="5,2" d="M578.02,-102C586.77,-102 595.61,-102 604.42,-102"/>
<polygon fill="#d29922" stroke="#d29922" stroke-width="1.6" points="604.57,-105.15 613.57,-102 604.57,-98.85 604.57,-105.15"/>
</g>
</g>
</svg>
